<svg width="83" height="80" viewBox="0 0 83 80" fill="none" xmlns="http://www.w3.org/2000/svg">
<path d="M10.2125 10C10.2125 6.31667 13.3077 3.33333 17.1292 3.33333C20.9506 3.33333 24.0458 6.31667 24.0458 10C24.0458 13.6833 20.9506 16.6667 17.1292 16.6667C13.3077 16.6667 10.2125 13.6833 10.2125 10ZM41.3375 16.6667C46.1135 16.6667 49.9833 12.9367 49.9833 8.33333C49.9833 3.73 46.1135 0 41.3375 0C36.5616 0 32.6917 3.73 32.6917 8.33333C32.6917 12.9367 36.5616 16.6667 41.3375 16.6667ZM65.5459 16.6667C69.3673 16.6667 72.4625 13.6833 72.4625 10C72.4625 6.31667 69.3673 3.33333 65.5459 3.33333C61.7244 3.33333 58.6292 6.31667 58.6292 10C58.6292 13.6833 61.7244 16.6667 65.5459 16.6667ZM41.341 80C19.7195 80 1.95402 64.3633 0.0138899 43.6333C-0.155568 41.8 1.24506 40.18 3.14714 40.0133C5.09418 39.8533 6.73343 41.2 6.90289 43.0333C7.12768 45.45 7.63951 47.7733 8.35193 50H20.2486C19.6987 47.9467 19.2699 45.8367 19.0486 43.6567C18.8618 41.8233 20.2555 40.1933 22.1541 40.0167C24.0666 39.85 25.7473 41.18 25.9306 43.01C26.1727 45.4167 26.7157 47.75 27.4316 50H55.2504C55.9663 47.75 56.5092 45.4167 56.7513 43.01C56.9346 41.1767 58.6188 39.8467 60.5278 40.0167C62.4299 40.1933 63.8201 41.8233 63.6334 43.6567C63.4155 45.8367 62.9832 47.9467 62.4334 50H74.33C75.0459 47.7733 75.5543 45.45 75.7791 43.0333C75.952 41.2 77.5981 39.8467 79.5348 40.0133C81.4369 40.18 82.841 41.8 82.6681 43.6333C80.7279 64.3633 62.9625 79.9967 41.341 80ZM30.1948 56.6667C33.7326 63.5967 38.5259 69.0767 41.3341 71.9533C44.1457 69.0767 48.9355 63.5967 52.4734 56.6667H30.1948ZM32.3631 72.19C29.0985 68.2933 25.3185 62.96 22.5795 56.6667H11.3607C15.8842 64.2767 23.3957 69.9067 32.3631 72.19ZM71.3143 56.6667H60.0955C57.3565 62.9633 53.5766 68.2933 50.3119 72.19C59.2794 69.9067 66.7908 64.2767 71.3143 56.6667ZM30.9625 33.3333H51.7125C54.0538 33.3967 55.8314 30.92 54.953 28.83C52.8987 23.5467 47.4276 20 41.3375 20C35.2474 20 29.7763 23.5467 27.7221 28.83C26.8402 30.9167 28.6212 33.3967 30.9625 33.3333ZM6.75418 33.3333H21.2066C20.4008 31.1433 20.38 28.7233 21.2446 26.4933C21.9293 24.7333 22.8942 23.1267 24.0355 21.6567C21.9536 20.61 19.6019 20 17.1292 20C11.0391 20 5.56797 23.5467 3.51372 28.83C2.63185 30.9167 4.41289 33.3967 6.75418 33.3333ZM58.6396 21.6567C59.7774 23.1267 60.7457 24.7333 61.4304 26.4933C62.295 28.7233 62.2743 31.14 61.4685 33.3333H75.9243C78.2656 33.3967 80.0432 30.92 79.1648 28.83C77.1105 23.5467 71.6394 20 65.5493 20C63.0766 20 60.718 20.61 58.6396 21.6567Z" fill="#53F0FB"/>
</svg>
