<svg width="83" height="80" viewBox="0 0 83 80" fill="none" xmlns="http://www.w3.org/2000/svg">
<path d="M58.7917 33.4633C45.446 33.4633 34.5833 43.93 34.5833 56.7967C34.5833 69.59 45.446 80 58.7917 80C72.1374 80 83 69.5333 83 56.6667C83 43.8733 72.1374 33.4633 58.7917 33.4633ZM58.7917 73.3333C49.257 73.3333 41.5 65.9133 41.5 56.7967C41.5 47.6067 49.257 40.13 58.7917 40.13C68.3263 40.13 76.0833 47.55 76.0833 56.6667C76.0833 65.8567 68.3263 73.3333 58.7917 73.3333ZM64.695 57.6433C66.0473 58.9467 66.0473 61.0533 64.695 62.3567C64.0207 63.0067 63.1353 63.3333 62.25 63.3333C61.3647 63.3333 60.4793 63.0067 59.805 62.3567L56.3466 59.0233C55.6965 58.3967 55.3333 57.55 55.3333 56.6667V50C55.3333 48.16 56.8792 46.6667 58.7917 46.6667C60.7041 46.6667 62.25 48.16 62.25 50V55.2867L64.695 57.6433ZM83 23.3333V30C83 31.84 81.4541 33.3333 79.5417 33.3333C77.6292 33.3333 76.0833 31.84 76.0833 30V23.3333C76.0833 17.82 71.4284 13.3333 65.7083 13.3333H17.2917C11.5716 13.3333 6.91667 17.82 6.91667 23.3333V26.6667H38.0417C39.9507 26.6667 41.5 28.16 41.5 30C41.5 31.84 39.9507 33.3333 38.0417 33.3333H6.91667V63.3333C6.91667 68.8467 11.5716 73.3333 17.2917 73.3333H31.125C33.034 73.3333 34.5833 74.8267 34.5833 76.6667C34.5833 78.5067 33.034 80 31.125 80H17.2917C7.75704 80 0 72.5233 0 63.3333V23.3333C0 14.1433 7.75704 6.66667 17.2917 6.66667H20.75V3.33333C20.75 1.49333 22.2993 0 24.2083 0C26.1173 0 27.6667 1.49333 27.6667 3.33333V6.66667H55.3333V3.33333C55.3333 1.49333 56.8792 0 58.7917 0C60.7041 0 62.25 1.49333 62.25 3.33333V6.66667H65.7083C75.243 6.66667 83 14.1433 83 23.3333Z" fill="#53F0FB"/>
</svg>
