<svg width="83" height="80" viewBox="0 0 83 80" fill="none" xmlns="http://www.w3.org/2000/svg">
<path d="M58.7913 28.3333V5C58.7913 2.23667 61.1153 0 63.9788 0C66.2613 0 68.5265 0.426667 70.6395 1.25667L81.3431 5.45333C83.5529 6.78333 83.5529 9.88333 81.3431 11.2167L69.1663 16.86V28.3367C69.1663 31.1 66.8423 33.3367 63.9788 33.3367C61.1153 33.3367 58.7913 31.1 58.7913 28.3367V28.3333ZM12.1038 63.3333C16.8797 63.3333 20.7496 59.6033 20.7496 55C20.7496 50.3967 16.8797 46.6667 12.1038 46.6667C7.3278 46.6667 3.45792 50.3967 3.45792 55C3.45792 59.6033 7.3278 63.3333 12.1038 63.3333ZM12.1038 66.6667C6.45976 66.6667 1.69071 70.18 0.158672 75C-0.176786 76.0567 -0.494953 80 4.98305 80H19.2245C24.7025 80 24.3843 76.0567 24.0488 75C22.5168 70.18 17.7478 66.6667 12.1038 66.6667ZM67.4371 46.6667H41.4996C37.685 46.6667 34.5829 43.6767 34.5829 40C34.5829 36.3233 37.685 33.3333 41.4996 33.3333H46.6871C49.5506 33.3333 51.8746 31.0967 51.8746 28.3333C51.8746 25.57 49.5506 23.3333 46.6871 23.3333H41.4996C31.965 23.3333 24.2079 30.81 24.2079 40C24.2079 49.19 31.965 56.6667 41.4996 56.6667H67.4371C70.2971 56.6667 72.6246 58.91 72.6246 61.6667C72.6246 64.4233 70.2971 66.6667 67.4371 66.6667H36.3121C33.4486 66.6667 31.1246 68.9067 31.1246 71.6667C31.1246 74.4267 33.4486 76.6667 36.3121 76.6667H67.4371C76.0172 76.6667 82.9996 69.9367 82.9996 61.6667C82.9996 53.3967 76.0172 46.6667 67.4371 46.6667Z" fill="#53F0FB"/>
</svg>
